<svg width="134" height="69" viewBox="0 0 134 69" fill="none" xmlns="http://www.w3.org/2000/svg">
<path d="M56.2592 21.782C56.2592 21.782 56.6937 21.1303 57.0585 20.6343C57.7235 19.7325 58.9256 18.4823 59.8294 17.7076C60.1082 17.4719 60.433 17.2024 60.433 17.2024C60.433 17.2024 59.9217 17.2557 59.6337 17.3151C58.9471 17.4494 57.9398 18.1185 57.4356 18.551C56.6055 19.2601 55.6935 20.416 56.1044 21.4408C56.1659 21.5884 56.2592 21.782 56.2592 21.782ZM60.8747 23.0169C62.1864 22.9287 63.4161 22.5486 64.5587 21.9163C65.6808 21.2891 67.3296 20.0656 67.1616 18.6248C67.1073 18.1605 66.8039 17.808 66.4186 17.643C65.9165 17.4248 65.6562 17.4637 65.0157 17.6512C64.5525 17.7886 64.3445 17.8705 63.9069 18.1216C62.6178 18.8697 60.7947 20.4693 59.8038 21.7472C59.5743 22.0464 59.3427 22.3836 59.1633 22.6131C59.0465 22.7535 58.9594 22.8857 58.9696 22.9216C59.0086 23.0681 60.3613 23.0538 60.8747 23.0169ZM57.5329 25.4712C57.3987 25.6116 57.2563 25.96 57.1066 26.211C57.0277 26.3443 56.8802 26.5164 56.7838 26.5841C56.4426 26.8351 56.1546 26.8464 55.8226 26.5564C55.3615 26.1506 55.095 25.5163 55.0756 24.9014C55.0653 24.6319 55.1094 24.3378 55.0612 24.1082C54.9762 23.727 54.5929 23.3356 54.388 22.9697C54.1461 22.5363 53.9504 21.7872 53.9268 21.3035C53.8418 19.793 54.639 18.4034 55.674 17.3049C56.7152 16.1951 58.0771 15.2728 59.5599 14.6467C60.9597 14.0543 63.0133 13.6526 64.5515 14.1865C65.0506 14.3587 65.7495 14.785 66.0999 15.2287C66.1737 15.323 66.2352 15.4255 66.312 15.4736C66.3786 15.5167 66.558 15.5341 66.7004 15.5597C67.1923 15.6448 67.8994 16.0157 68.1874 16.2627C68.7643 16.7638 69.084 17.2424 69.2305 17.9361C69.5257 19.3308 68.7223 20.8628 67.8072 21.7933C66.2383 23.3991 64.6898 24.5253 62.6834 25.3123C61.8041 25.6567 60.432 25.9774 59.4318 25.8872C59.1223 25.8616 58.8016 25.7806 58.5003 25.7581C58.3476 25.7448 57.783 25.6023 57.7235 25.5572C57.6487 25.5029 57.5534 25.4517 57.5329 25.4712ZM59.3252 28.5659C59.3857 28.5772 59.481 28.6049 59.562 28.6336C60.2649 28.9021 60.5539 29.5538 60.7271 30.267C61.1288 31.9271 61.301 35.5968 61.3666 37.0366C61.4157 38.1126 61.4424 39.1773 61.4875 40.242C61.5254 41.1448 61.5971 42.3459 61.4106 43.1933C61.342 43.4977 61.1391 43.8482 60.847 44.0316C60.5119 44.2447 59.7526 44.2611 59.3355 44.175C58.3056 43.9619 57.9705 43.2999 57.825 42.2823C57.4756 39.8526 57.6426 35.0844 57.8496 33.0718C57.9162 32.4108 58.1683 30.2814 58.5157 29.3898C58.6325 29.0865 58.8856 28.4799 59.3252 28.5659ZM27.6069 32.212C27.6069 32.212 26.0821 32.3196 25.0348 32.4364C23.6995 32.5789 21.192 33.0124 19.7471 33.5319C19.3115 33.6836 18.4292 34.0535 18.3524 34.4983C18.2745 34.9635 18.5594 35.3232 18.8801 35.6993C19.0646 35.9155 20.1098 36.9208 20.4019 37.1657C21.6306 38.1894 24.1207 39.7727 25.9581 40.5413C26.5853 40.8026 27.6285 41.1756 27.6285 41.1756C27.6285 41.1756 27.5506 38.2069 27.566 35.2832C27.5721 33.7379 27.6069 32.212 27.6069 32.212ZM55.5429 33.3936C55.631 34.1908 55.424 35.6993 55.3902 35.8981C55.3246 36.3561 54.9782 37.4127 54.9229 37.5428C54.6431 38.1833 54.3695 38.7131 54.0764 39.2367C53.5763 40.1365 52.3897 41.5619 51.6826 42.1716C49.0613 44.4384 45.0012 45.7296 41.517 46.1549C39.1549 46.4408 36.4393 46.3967 33.9338 45.9346C33.073 45.7757 31.7921 45.4826 31.7921 45.4826C31.7921 45.4826 31.7951 45.995 31.7531 46.3568C31.7336 46.5187 31.6086 46.9532 31.54 47.0936C31.3565 47.4696 31.0583 47.6633 30.6249 47.7453C30.1002 47.8457 29.5437 47.8754 29.058 47.6705C28.2628 47.3334 27.9759 46.5873 27.8385 45.7327C27.7258 45.044 27.608 43.8482 27.608 43.8482C27.608 43.8482 27.0136 43.5674 26.5166 43.3194C24.9918 42.5672 23.5417 41.6593 22.2762 40.7206C21.9257 40.4613 20.4172 39.1968 20.0832 38.8812C19.1496 37.9988 18.3103 37.1155 17.6709 35.9842C17.1739 35.1008 17.0314 34.3148 17.4086 33.3792C17.9312 32.0747 19.8014 31.0899 21.0823 30.5294C22.0241 30.1143 24.9457 29.1603 26.161 28.984C26.7339 28.9021 27.6233 28.7442 27.6776 28.7074C27.7002 28.691 27.7166 28.6766 27.732 28.6571C27.7596 28.6172 27.8068 27.3239 27.7976 26.8525C27.7873 26.3873 28.1419 23.3366 28.2556 22.692C28.3171 22.3405 28.5815 20.9971 28.852 20.6456C29.0273 20.4078 29.3398 20.4242 29.5939 20.5831C30.9866 21.4469 31.4088 24.4515 31.5123 25.9805C31.5748 26.911 31.6055 28.3118 31.6055 28.3118C31.6055 28.3118 33.2031 28.2657 34.1869 28.2913C35.141 28.3149 36.1934 28.4665 37.1854 28.6243C38.455 28.8252 40.9288 29.3652 42.3471 30.0857C43.5163 30.6769 44.6087 31.6761 44.9622 32.7326C45.2922 33.701 45.242 34.3691 44.7409 35.2433C44.1783 36.2311 43.1115 36.9628 42.0304 37.0233C41.7076 37.0448 40.4974 36.8829 40.1254 36.5949C39.9778 36.4781 39.986 36.2711 40.0926 36.1307C40.1326 36.0795 40.6972 35.7833 41.0323 35.605C41.1993 35.5138 41.3387 35.4164 41.4678 35.2976C41.7466 35.0506 41.9956 34.7821 41.9679 34.4685C41.929 34.0586 41.4975 33.8055 41.0835 33.6436C39.1467 32.875 35.2793 32.2346 33.4081 32.1239C32.6764 32.0809 31.6373 32.044 31.6373 32.044L31.8566 42.3653C31.8566 42.3653 32.7174 42.5303 33.3948 42.641C33.7852 42.6984 35.433 42.847 35.8706 42.8582C39.2062 42.9464 42.9291 42.6492 45.9901 41.2012C47.3335 40.5689 48.5663 39.7829 49.4988 38.7182C50.7306 37.3051 51.3752 35.3765 51.204 33.3618C51.0165 31.1565 49.4661 28.5454 48.2302 26.954C44.9602 22.7474 39.3558 19.2909 34.4267 17.2639C29.3921 15.1949 24.4179 14.0021 19.0738 13.8033C17.6975 13.7541 14.6929 13.8238 13.1773 14.2439C12.958 14.3044 12.7408 14.3782 12.5389 14.4212C12.379 14.4601 12.1311 14.5657 12.0614 14.62C12.0245 14.6538 11.9845 14.6938 11.9845 14.6938C11.9845 14.6938 12.0788 14.745 12.1679 14.785C12.3288 14.8557 13.0062 14.8957 13.3567 14.9592C13.6682 15.0186 13.9971 15.1857 14.1242 15.4162C14.2472 15.6335 14.2646 15.8046 14.116 15.986C13.7717 16.4072 12.4764 16.3334 11.9077 16.2453C11.3153 16.1489 10.5785 15.9696 10.4423 15.4531C10.2865 14.8455 10.5724 14.2501 10.8849 13.6988C11.5121 12.5971 12.4077 12.0233 13.7235 11.6656C15.5886 11.1533 17.9445 10.7936 19.7071 10.7259C23.6965 10.5773 27.4706 11.2721 31.334 12.4475C33.5454 13.1146 36.4434 14.2367 38.5616 15.2584C40.0803 15.9901 42.4782 17.3407 43.8248 18.2231C44.249 18.5028 46.734 20.3279 47.1194 20.6487C47.9248 21.3066 48.9793 22.2524 49.7397 23.0097C51.2153 24.472 53.0507 26.7122 53.9442 28.4891C54.1564 28.9174 54.3244 29.3366 54.5991 29.8295C54.6944 29.9975 55.1032 31.01 55.1709 31.3031C55.2375 31.592 55.3359 32.0173 55.3502 32.0327C55.3707 32.1895 55.5572 33.0564 55.5429 33.3936ZM72.7281 34.1437C72.8029 34.1509 72.8213 34.1539 72.89 34.1642C74.1115 34.3302 75.3084 34.5495 76.2235 34.9594C77.073 35.3365 77.5731 35.8099 78.0271 36.6574C78.7188 37.9414 78.7649 39.7378 78.1398 41.0987C77.6715 42.1102 76.6467 42.9597 75.7121 43.4106C74.7376 43.882 73.7836 44.1054 72.685 44.2304C70.7687 44.4405 68.6926 44.0449 66.9648 43.2087C65.9431 42.7096 64.695 41.8509 64.0648 40.7431C63.6016 39.9295 63.6159 38.875 64.1805 38.1044C65.0772 36.8767 66.9986 36.6062 68.4487 36.6574C69.5533 36.6984 71.5393 37.0417 72.5897 37.4127C72.8818 37.5182 73.9526 37.9363 74.1391 38.1249C74.2703 38.2601 74.3574 38.4518 74.298 38.6332C74.0561 39.3659 72.2782 39.7522 71.7648 39.8291C70.3865 40.0391 69.6732 39.5196 68.1084 38.9016C67.7201 38.75 67.2026 38.5819 66.805 38.545C66.0958 38.4774 65.2381 38.6731 65.1039 39.4509C65.0342 39.8516 65.5035 40.2246 65.8611 40.3793C66.7004 40.7431 67.3829 40.8712 68.2109 40.8846C70.6488 40.9214 73.39 40.5208 75.3873 39.1066C75.663 38.9129 75.9294 38.626 75.9335 38.2663C75.9335 38.2202 75.8679 37.8328 75.7429 37.7929C75.7244 37.7847 75.705 37.7939 75.6906 37.7908C75.6445 37.7775 75.5677 37.6514 75.5031 37.5684C75.3596 37.3932 74.7806 37.1442 74.6669 37.096C73.3224 36.5355 70.8384 36.2629 69.5564 36.1573C68.214 36.0426 66.102 35.8643 65.5937 35.7905C65.0721 35.7167 64.5044 35.6132 64.0504 35.4093C63.5985 35.2043 63.1537 34.7452 63.0205 34.238C62.7869 33.3218 63.0871 32.1967 63.5954 31.4629C64.9296 29.5446 68.0511 28.818 70.3865 28.529C72.6461 28.2472 76.2983 28.2503 78.5169 29.4298C78.8602 29.6122 79.0365 29.7833 78.9627 30.1502C78.8192 30.8378 78.2986 31.2805 77.6746 31.4752C77.0187 31.6843 75.6589 31.7652 75.0624 31.8021C72.3868 31.9528 69.1537 31.8739 66.6072 32.5697C66.4073 32.6271 66.063 32.7162 65.9493 32.8433C65.5506 33.2757 66.6902 33.3987 66.9351 33.452C67.0068 33.4663 67.0222 33.4694 67.097 33.4766L72.7281 34.1437ZM81.0747 44.1505C79.9946 43.7539 79.7497 42.0097 79.6995 41.1274C79.5284 38.255 80.2877 34.2585 81.252 31.5664C81.5276 30.7999 81.9242 29.5477 82.7819 29.6184C83.3722 29.6706 83.7934 30.1256 84.1244 30.5929C84.9708 31.7868 86.0837 33.4048 86.8215 34.5311C87.6465 35.7936 88.4386 37.0653 89.2174 38.2161C89.3127 38.3554 89.4029 38.4907 89.5074 38.5768C89.6489 38.6905 89.7759 38.6967 89.8333 38.5911C89.8599 38.5502 89.8087 37.0991 89.7729 36.8081C89.7124 36.3449 89.6847 35.9698 89.6325 35.5702C89.489 34.4091 89.119 32.7756 88.829 31.671C88.5093 30.4351 88.1189 29.147 87.8268 27.9511C87.7336 27.5627 87.6465 27.1702 87.6495 26.8003C87.6526 26.2654 87.9959 25.9692 88.5534 26.169C89.6519 26.5564 91.1081 28.941 91.5324 29.769C91.6768 30.0488 92.2487 31.4711 92.3768 31.8698C92.8328 33.2358 93.1084 34.5311 93.2345 36.02C93.3554 37.467 93.254 39.5749 92.6422 41.0014C92.4178 41.526 91.9566 42.2321 91.5733 42.5877C90.9718 43.1452 89.7729 43.5807 88.9469 43.1093C88.0431 42.5969 86.5582 40.0248 86.3051 39.5852C85.4433 38.0808 83.9604 35.1387 83.7309 34.8088C83.6806 34.736 83.6151 34.6663 83.5003 34.6315C83.4132 34.6059 83.3783 34.7872 83.3558 34.9051C83.2082 35.7618 83.1068 39.7686 83.1047 39.8803C83.0802 40.5546 83.0474 42.2085 82.8527 43.0232C82.7256 43.5551 82.5965 43.9916 82.1077 44.215C81.7603 44.3718 81.4959 44.3062 81.0747 44.1505ZM95.9644 43.8943C95.8476 43.8051 95.6591 43.6125 95.5217 43.4577C95.5002 43.4362 95.1118 42.8541 95.035 42.6748C94.9673 42.5201 94.9161 42.4084 94.8669 42.2792C94.5134 41.3662 94.5226 40.4675 94.7183 39.4868C94.8997 38.5717 95.0719 38.5317 95.5412 37.2754C95.5709 37.2067 95.5853 37.1473 95.5955 37.0714C95.615 36.8993 95.3363 35.7413 95.3199 35.3693C95.3004 34.8016 95.741 34.3989 96.4789 34.321C96.5465 34.3148 96.5967 34.3159 96.6459 34.3015C96.94 34.2298 97.1285 33.6662 97.2894 33.2142C97.5139 32.5789 97.8643 31.6105 97.8643 31.6105C97.8643 31.6105 96.9318 31.3953 96.4327 31.2067C95.8753 30.9967 95.4541 30.7251 95.202 30.2137C94.8997 29.6153 95.0985 29.2833 95.7236 29.0896C95.9532 29.0158 97.7629 28.6684 98.3347 28.5875C99.0479 28.4829 99.7191 28.3938 100.398 28.3097C100.988 28.238 103.695 27.9244 104.557 27.947C105.871 27.9849 106.723 28.526 107.491 29.6378C107.904 30.2312 108.186 30.9362 107.563 31.3184C106.606 31.8995 103.505 31.9435 102.936 31.9497C102.031 31.9589 100.78 31.9435 100.78 31.9435L100.149 34.0535C100.149 34.0535 102.37 34.0299 103.618 34.0248C103.922 34.0248 104.225 34.0412 104.395 34.0771C105.033 34.2185 105.253 34.7083 105.278 35.4144C105.313 36.2403 105.158 36.6205 104.5 36.7312C104.159 36.7855 100.343 36.8081 99.8257 36.8685C99.5029 36.9034 99.1617 36.9546 99.1617 36.9546C99.1617 36.9546 98.886 37.674 98.6462 38.4005C98.4044 39.1578 98.1974 39.9295 98.1974 39.9295C98.1974 39.9295 98.3911 39.9377 98.5519 39.9377C98.8204 39.9397 99.093 39.9008 99.3062 39.8639C100.47 39.6507 102.201 39.3946 103.621 39.1712C104.385 39.0492 104.769 38.9949 105.171 39.5011C105.518 39.9489 105.699 40.324 105.723 40.8651C105.745 41.3744 105.356 41.7115 104.882 42.0743C103.381 43.222 100.815 44.4661 98.9024 44.6792C98.0191 44.7786 97.8039 44.6803 97.0302 44.4784C96.8826 44.4405 96.3477 44.1904 96.3528 44.1638C96.3528 44.1638 96.0628 43.9711 95.9644 43.8943ZM120.091 33.2901C119.108 34.114 117.837 35.7936 117.23 36.6656C116.42 37.8216 115.657 39.1455 114.928 40.1713C114.771 40.4019 114.3 41.2268 114.317 41.2545C114.35 41.3129 114.823 41.2945 115.31 41.2125C116.346 41.0383 117.755 40.3107 118.507 39.7102C119.654 38.791 120.452 37.5285 120.829 36.0518C120.996 35.3806 121.081 33.9736 120.606 33.3475C120.513 33.2276 120.275 33.1333 120.091 33.2901ZM112.279 45.3535C112.279 45.3535 111.967 46.2676 111.739 46.9849C111.344 48.2228 110.476 51.5564 110.275 52.5924C109.973 54.1295 109.112 58.1579 109.068 58.2439C109.008 58.3608 108.968 58.3977 108.822 58.4909C108.467 58.6989 108.325 58.6303 107.896 58.4007C107.338 58.1077 106.848 57.8084 106.43 57.2561C105.59 56.1647 105.791 54.1111 105.955 52.906C106.532 48.6912 107.115 46.8374 108.719 42.642C108.745 42.5703 108.745 42.5539 108.712 42.4903C108.212 41.4256 107.943 40.1396 107.943 39.1004C107.947 35.812 109.837 32.5584 111.956 29.9453C112.116 29.7465 113.156 28.5004 113.628 28.5249C114.102 28.5475 114.178 29.0998 114.108 29.561C113.87 31.0797 112.801 32.6271 112.071 33.908C111.249 35.3396 111.07 35.9288 110.669 37.2415C110.604 37.4465 110.443 38.4057 110.45 38.5286C110.467 38.8811 110.544 39.3259 110.544 39.3259C110.544 39.3259 111.88 37.4547 112.762 36.2998C113.244 35.6655 113.59 35.2463 113.992 34.7944C114.399 34.3353 115.966 32.707 116.417 32.2776C117.364 31.3727 117.785 30.9967 118.809 30.4648C119.622 30.0447 120.352 29.9401 121.144 30.4638C122.4 31.2887 122.947 33.0339 123.089 34.4491C123.254 36.1399 122.908 38.0419 122.162 39.4899C121.278 41.2176 120.07 42.4617 118.427 43.5499C116.748 44.6628 114.777 45.4201 112.844 45.375C112.583 45.3689 112.279 45.3535 112.279 45.3535Z" fill="#2A2A2A" fill-opacity="0.6"/>
</svg>
