<svg width="108" height="34" viewBox="0 0 108 34" fill="none" xmlns="http://www.w3.org/2000/svg">
<path d="M54.923 0.245483V13.2108H54.8414C53.1992 11.3231 51.1473 10.6672 48.7665 10.6672C43.8897 10.6672 40.2161 13.9824 38.9266 18.3656C37.456 13.536 33.6635 10.5767 28.0398 10.5767C23.4727 10.5767 19.8664 12.6267 17.9843 15.9671V11.8153H8.54423V7.30758H18.846V0.245483H0.12915V31.9267H8.54423V18.6092H16.9318C16.6817 19.5875 16.5483 20.6349 16.5483 21.7402C16.5483 28.3488 21.5968 32.9858 28.0398 32.9858C33.4578 32.9858 37.0282 30.4422 38.9168 25.8047H31.7054C30.7299 27.1978 29.9899 27.6116 28.0398 27.6116C25.7784 27.6116 23.8287 25.6386 23.8287 23.2998H38.5128C39.1496 28.5489 43.2384 33.0758 48.8495 33.0758C51.27 33.0758 53.4861 31.8852 54.8414 29.8748H54.923V31.9258H62.3411V0.245483H54.923ZM24.0629 18.7039C24.5309 16.6917 26.0915 15.3765 28.0398 15.3765C30.1845 15.3765 31.6657 16.6511 32.0553 18.7039C32.2195 18.7039 24.0629 18.7039 24.0629 18.7039ZM50.4213 27.1026C47.6869 27.1026 45.9878 24.5548 45.9878 21.8946C45.9878 19.051 47.4658 16.3166 50.4213 16.3166C53.4861 16.3166 54.707 19.051 54.707 21.8946C54.7066 24.5912 53.4128 27.1026 50.4213 27.1026Z" fill="#2A2A2A" fill-opacity="0.6"/>
<path fill-rule="evenodd" clip-rule="evenodd" d="M69.7906 7.30665H79.9259V0.245483H62.3413V31.9262H79.9259V24.8455H69.7906V18.6092H79.9259V11.8149H69.7906V7.30665ZM88.8754 21.8712L79.9266 31.9262H89.0802L93.4308 27.0013L97.8228 31.9262H107.304L98.2749 21.8297L107.181 11.8148H98.0687L93.8007 16.6995L89.3686 11.8148H79.9266L88.8754 21.8712Z" fill="#2A2A2A" fill-opacity="0.6"/>
</svg>
