<svg width="218" height="42" viewBox="0 0 218 42" fill="none" xmlns="http://www.w3.org/2000/svg">
<path d="M12.7 3.86887C11.4664 6.00058 10.4301 7.82635 10.4005 7.91517C10.3314 8.09282 10.6078 8.58627 15.2067 16.5111C16.1838 18.1888 16.9535 19.5804 16.9338 19.6001C16.9141 19.6297 16.8154 19.5211 16.7167 19.3731C15.9272 18.1691 13.9731 16.7381 12.3644 16.1854C10.3709 15.4847 8.09115 15.5242 6.27525 16.2841C5.06136 16.7874 5.04163 16.521 6.54172 19.0474C8.79185 22.8371 9.31491 23.7352 9.35439 23.824C9.37413 23.8833 9.1274 23.6957 8.81159 23.4194C8.0122 22.7384 7.45954 22.4325 6.55159 22.2055C5.22914 21.87 4.18302 21.9785 2.90005 22.6003C1.15323 23.449 0.107114 25.0281 0.00842354 27.0019C-0.0705286 28.65 0.403184 29.9132 1.52825 31.0383C4.30145 33.8115 8.95963 32.6864 10.2623 28.9165C10.5387 28.0973 10.5683 26.5578 10.3117 25.8275C10.213 25.561 10.1538 25.3241 10.1834 25.3044C10.2031 25.2847 11.19 26.9229 12.3743 28.9461C13.5586 30.9593 14.5455 32.6371 14.5554 32.6568C14.5948 32.6963 15.1278 32.3213 15.7199 31.8278C16.8647 30.8804 18.0194 29.0349 18.3845 27.5743C18.8681 25.6695 18.73 23.3799 18.0293 21.7219C17.9306 21.4851 17.8615 21.268 17.8911 21.2482C17.9306 21.2087 18.7892 22.6694 21.4538 27.2881C22.1052 28.423 23.0625 30.081 23.5757 30.9593L24.5033 32.568H29.1319C33.4743 32.568 33.7605 32.5581 33.7013 32.4002C33.6618 32.3015 32.9512 31.0482 32.1124 29.6073C31.2834 28.1664 28.8556 23.9721 26.7337 20.2811C24.602 16.59 22.1052 12.2575 21.1775 10.6588C18.1082 5.34923 16.6575 2.83263 15.8383 1.41149C15.4041 0.631835 15.0192 0.000217349 14.9896 0.000217349C14.96 0.000217349 13.9237 1.74703 12.7 3.86887Z" fill="#FEA334"/>
<path d="M45.9074 2.54296C49.8887 2.54296 52.7894 3.325 54.6094 4.88909C56.4294 6.45318 57.3395 8.65712 57.3395 11.5009C57.3395 12.7522 57.1262 13.9608 56.6996 15.1268C56.3015 16.2643 55.6332 17.288 54.6947 18.198C53.7563 19.1081 52.505 19.8332 50.9409 20.3736C49.3768 20.8854 47.4573 21.1414 45.1822 21.1414H41.6844V33H37.8452V2.54296H45.9074ZM45.5661 5.82754H41.6844V17.8568H44.7557C46.6894 17.8568 48.2962 17.6577 49.5759 17.2596C50.8556 16.833 51.8083 16.1647 52.4339 15.2547C53.0595 14.3447 53.3724 13.1503 53.3724 11.6715C53.3724 9.70932 52.7467 8.24477 51.4955 7.27788C50.2442 6.31099 48.2677 5.82754 45.5661 5.82754ZM71.7348 2.54296C75.7161 2.54296 78.6168 3.325 80.4368 4.88909C82.2569 6.45318 83.1669 8.65712 83.1669 11.5009C83.1669 12.7522 82.9536 13.9608 82.527 15.1268C82.1289 16.2643 81.4606 17.288 80.5222 18.198C79.5837 19.1081 78.3324 19.8332 76.7683 20.3736C75.2043 20.8854 73.2847 21.1414 71.0097 21.1414H67.5118V33H63.6727V2.54296H71.7348ZM71.3936 5.82754H67.5118V17.8568H70.5831C72.5169 17.8568 74.1236 17.6577 75.4033 17.2596C76.683 16.833 77.6357 16.1647 78.2613 15.2547C78.887 14.3447 79.1998 13.1503 79.1998 11.6715C79.1998 9.70932 78.5742 8.24477 77.3229 7.27788C76.0716 6.31099 74.0952 5.82754 71.3936 5.82754ZM89.5001 33V2.54296H93.3392V29.5874H106.648V33H89.5001ZM118.513 17.5155L126.447 2.54296H130.585L120.432 21.184V33H116.593V21.3547L106.441 2.54296H110.621L118.513 17.5155Z" fill="#FEA334"/>
<path d="M138.579 33H134.74V2.54296H151.76V5.91286H138.579V16.7051H150.949V20.075H138.579V33ZM165.434 33H154.428V30.7818L158.011 29.9714V5.61426L154.428 4.76112V2.54296H165.434V4.76112L161.851 5.61426V29.9714L165.434 30.7818V33ZM188.335 33H171.315V2.54296H188.335V5.91286H175.154V15.4253H187.567V18.7526H175.154V29.6301H188.335V33ZM203.421 2.54296C205.952 2.54296 208.028 2.87 209.649 3.52407C211.298 4.1497 212.521 5.10237 213.317 6.38208C214.114 7.66179 214.512 9.26853 214.512 11.2023C214.512 12.8233 214.213 14.1741 213.616 15.2547C213.019 16.3354 212.251 17.2027 211.313 17.8568C210.403 18.4824 209.436 18.9801 208.412 19.3498L216.773 33H212.294L204.914 20.4162H198.857V33H195.018V2.54296H203.421ZM203.208 5.8702H198.857V17.1743H203.421C205.07 17.1743 206.421 16.961 207.473 16.5344C208.526 16.0794 209.293 15.4253 209.777 14.5722C210.289 13.7191 210.545 12.6526 210.545 11.3729C210.545 10.0364 210.275 8.96994 209.734 8.17367C209.222 7.37741 208.426 6.79443 207.345 6.42474C206.265 6.05505 204.886 5.8702 203.208 5.8702Z" fill="#2A2A2A"/>
</svg>
