<svg width="129" height="47" viewBox="0 0 129 47" fill="none" xmlns="http://www.w3.org/2000/svg">
<path fill-rule="evenodd" clip-rule="evenodd" d="M2.56505 23.6607C2.56505 12.0695 30.3513 2.59689 64.6308 2.59689C98.9099 2.59689 126.694 12.0695 126.694 23.6607C126.694 35.2529 98.9099 44.7262 64.6308 44.7262C30.3513 44.7262 2.56505 35.2529 2.56505 23.6607ZM0.303223 23.6607C0.303223 36.3493 29.1034 46.6352 64.6308 46.6352C100.155 46.6352 128.953 36.3493 128.953 23.6607C128.953 10.9703 100.155 0.686157 64.6308 0.686157C29.1034 0.686157 0.303223 10.9703 0.303223 23.6607ZM57.8158 18.2379C57.8579 18.4601 57.9444 18.5034 58.0453 18.4848C58.5461 18.3845 59.0941 17.9725 59.4186 17.495C59.7141 17.0621 59.8527 16.4374 59.5591 16.187C59.2973 15.9618 58.871 16.0254 58.555 16.3047C57.9256 16.8607 57.7345 17.6496 57.8157 18.2384L57.8158 18.2379ZM32.7568 37.5068C29.0909 37.5309 25.8613 35.2669 25.4907 31.345C25.2847 29.1718 25.899 27.2349 27.1288 25.6392C28.2201 24.2174 30.0667 23.0362 31.6297 22.7476C32.1383 22.6545 32.8217 22.7115 33.1042 23.0502C33.5473 23.566 33.42 24.1326 32.9768 24.3587C31.7844 24.9675 30.3495 26.0098 29.6395 27.4331C29.0637 28.5947 28.9473 29.9947 29.8269 31.3284C31.2991 33.551 35.4027 33.6122 39.2183 30.0674C40.1632 29.1999 41.0088 28.3663 41.8684 27.379C43.5489 25.4575 44.1079 24.7573 46.3418 21.6587C46.3658 21.6227 46.3778 21.5758 46.3658 21.553C46.3478 21.5109 46.3178 21.5049 46.2511 21.4989C44.7599 21.541 43.4597 21.9848 42.196 22.9292C41.8321 23.1946 41.3083 23.1573 41.079 22.8079C40.8238 22.4128 41.007 21.8984 41.4267 21.608C43.2752 20.3224 45.2789 19.9937 47.3322 19.657L47.3326 19.6569C47.5373 19.6233 47.7426 19.5896 47.9483 19.5549C47.9464 19.5549 48.1057 19.5609 48.2354 19.3904C48.6295 18.8846 48.9827 18.3997 49.3344 17.9171L49.3345 17.9169C49.8135 17.2595 50.2895 16.6062 50.8618 15.9095C51.8617 14.6835 53.1534 13.5577 54.1403 12.7121C55.3305 11.6886 56.1519 11.2519 56.9324 10.8369L56.9328 10.8367C57.0554 10.7715 57.1771 10.7068 57.2991 10.6405C57.5357 10.5168 57.2691 10.3691 57.197 10.3691C56.8289 10.2999 56.4598 10.2292 56.0897 10.1584C51.4203 9.2644 46.6084 8.34315 41.9958 10.0508C38.548 11.3374 37.0371 14.0715 37.7638 15.8984C38.2808 17.1943 39.9852 17.405 41.5809 16.6242C42.9062 15.9748 44.1326 14.9283 45.002 13.581C45.4884 12.8329 46.5133 13.3727 45.9596 14.6718C44.5028 18.0958 41.7198 20.8118 38.3298 20.9265C35.4447 21.0201 33.5833 18.8976 33.5893 16.2792C33.6013 11.1146 39.3507 7.71251 45.3932 7.20392C50.4846 6.78315 55.3878 7.60571 60.3485 8.4379C62.4777 8.79511 64.6175 9.15408 66.7874 9.41728C72.3231 10.0876 77.6304 10.1016 83.1946 8.82337C83.8524 8.68046 84.3139 9.10018 84.271 9.76453C84.217 10.7249 83.4729 11.6497 81.6404 12.6492C79.5562 13.7923 77.3758 14.1391 75.0986 14.1577C71.3116 14.1908 67.703 13.1848 64.092 12.1782C62.4526 11.7212 60.8126 11.264 59.1553 10.9039C59.1563 10.9445 59.1591 10.9864 59.1618 11.0288V11.0288C59.1749 11.229 59.1886 11.4387 59.028 11.5597C56.088 13.7283 53.4304 15.9305 51.6506 19.0236C51.5905 19.0951 51.6205 19.1629 51.7268 19.1557C52.2311 19.1289 52.7189 19.1066 53.1973 19.0847L53.1978 19.0847C54.1852 19.0395 55.1329 18.9962 56.1046 18.9185C56.3568 18.8945 56.3663 18.8344 56.3441 18.6507C56.2162 17.5846 56.5278 16.3688 57.4657 15.5325C58.4255 14.672 59.6273 14.5741 60.424 15.1939C61.3298 15.8997 61.2496 17.169 60.7542 18.1209C60.2498 19.0868 59.4168 19.6034 58.6174 19.8542C58.6174 19.8542 58.4492 19.8902 58.4744 20.0427C58.4925 20.1898 58.8964 20.4676 59.2346 20.7003L59.2346 20.7004C59.4572 20.8535 59.6514 20.9871 59.6884 21.051C59.7784 21.2041 59.7304 21.4413 59.5665 21.6233C59.4512 21.7554 59.2705 21.8791 59.0393 21.8749C58.8588 21.8713 58.7467 21.8107 58.5237 21.6901L58.5001 21.6773C58.0113 21.4125 57.4004 20.9771 56.993 20.4638C56.8543 20.2903 56.7834 20.2868 56.4369 20.306C54.8757 20.396 52.4414 20.6314 50.7921 20.8374C50.3922 20.8854 50.3333 20.9617 50.2511 21.1004L50.073 21.394L50.073 21.3941C47.4947 25.6467 44.7442 30.1834 41.731 33.2436C38.4244 36.6004 35.6759 37.4842 32.7582 37.5071L32.7568 37.5068ZM91.0781 28.985C91.0962 29.1003 91.2475 29.2107 91.394 29.263C91.448 29.281 91.4744 29.317 91.418 29.4395C91.0614 30.2041 90.7292 30.6923 90.3139 31.3028L90.3121 31.3053C90.2413 31.4095 90.168 31.5173 90.0917 31.6305C89.6095 32.3498 89.0666 32.911 88.4093 33.4508C87.4178 34.2713 86.0408 35.1645 84.9024 34.5641C84.3968 34.3017 84.178 33.5939 84.1877 33.021C84.2118 31.41 84.9285 29.756 86.2519 28.1305C87.8653 26.1442 89.6489 25.114 90.8195 25.6771C92.0306 26.2547 91.6441 27.6569 91.1017 28.7575C91.0597 28.8428 91.0597 28.9148 91.0777 28.9844L91.0781 28.985ZM104.074 16.4316C104.161 16.2779 104.069 16.1656 103.875 16.1656C103.375 16.1656 102.797 16.1662 102.213 16.1667H102.213C101.617 16.1673 101.015 16.1679 100.482 16.1679C100.231 16.1679 100.102 16.1979 99.9834 16.432C99.7275 16.9221 97.5902 20.1619 95.9054 22.7157L95.9053 22.7158L95.9051 22.7162C95.0276 24.0462 94.273 25.1901 93.9708 25.6626C93.8219 25.8728 93.6405 25.8433 93.6195 25.6025C93.5301 24.783 92.8223 23.8409 91.7072 23.3902C90.8575 23.0455 90.0267 22.983 89.1629 23.0977C87.6036 23.3072 86.2144 24.1298 84.993 25.0575C84.2218 25.6438 83.495 26.3028 82.7599 26.9692C81.7404 27.8936 80.705 28.8322 79.5137 29.611C78.3945 30.3405 76.8618 30.9768 75.8362 30.027C74.9081 29.1665 75.0129 27.2553 76.433 25.777C76.5826 25.6221 76.7621 25.753 76.7338 25.8905C76.5999 26.559 76.7639 27.2238 77.2719 27.69C77.8914 28.2454 78.7781 28.3081 79.537 27.9374C80.4325 27.4936 80.9587 26.6368 81.1121 25.6644C81.3493 24.1559 80.1882 22.8254 78.7352 22.7186C77.5549 22.6358 76.4229 23.0464 75.32 23.9568C74.767 24.4155 74.4529 24.7544 73.9747 25.4346C73.8582 25.6021 73.6792 25.6188 73.6846 25.3714C73.7386 23.4401 72.9406 22.3535 71.344 22.3181C70.1045 22.288 68.7805 22.9609 67.7485 23.7837C66.9008 24.4644 66.1329 25.3111 65.355 26.1688C65.0947 26.4558 64.8333 26.744 64.5674 27.0277C64.4353 27.167 64.3206 27.1604 64.2833 26.8902C64.2533 25.6105 63.9297 24.3711 63.3375 23.4909C63.1279 23.1847 62.6868 23.0333 62.3162 23.2399C62.2846 23.2572 62.2386 23.2806 62.1819 23.3094L62.1816 23.3095C61.9307 23.4373 61.4697 23.6718 61.1162 23.9564C60.9013 24.1335 60.8172 24.39 60.9127 24.7186C61.4843 26.6304 61.3588 28.804 60.583 30.6398C59.8707 32.3212 58.4867 33.8377 56.8598 34.351C55.788 34.6908 54.674 34.5245 53.9845 33.5743C53.0377 32.2631 53.42 29.9825 54.8315 28.0889C56.077 26.4215 57.8788 25.3623 59.6759 24.6803C59.8873 24.5986 59.9311 24.4629 59.8711 24.2834C59.8116 24.1027 59.73 23.882 59.6613 23.6958L59.6612 23.6956C59.6176 23.5775 59.5791 23.4732 59.5546 23.402C59.3895 22.963 58.9281 22.8921 58.3645 22.9534C57.0587 23.1053 55.8807 23.5527 54.7172 24.1757C51.6703 25.8073 50.1427 28.9651 49.4733 30.6545C49.1508 31.4661 48.8752 31.9723 48.519 32.4212C48.0387 33.0249 47.4357 33.5746 46.3332 34.5428C46.2335 34.6317 46.159 34.8166 46.2431 34.9889C46.3554 35.2219 46.9288 36.0318 47.0906 36.104C47.2702 36.1923 47.4785 36.0679 47.5619 36.0091C48.3334 35.4861 49.2565 34.6572 49.7081 34.095C49.8667 33.9022 50.0294 33.9833 50.1135 34.2757C50.535 35.7796 51.6387 37.0075 53.165 37.5212C55.9588 38.4634 58.8564 37.0997 61.0437 34.7256C61.987 33.7016 62.5212 32.9256 62.9336 32.3264C63.1289 32.0426 63.297 31.7985 63.4682 31.5865C63.6136 31.4063 63.7818 31.1903 63.9705 30.9479L63.9705 30.9479L63.9705 30.9478C64.9537 29.6848 66.494 27.7061 68.2739 26.3579C69.0519 25.7653 69.9726 25.3133 70.4355 25.6135C70.8072 25.8543 70.9273 26.4139 70.3311 27.4981C68.9901 29.9468 67.2574 32.661 65.9949 34.6385L65.9946 34.6389C65.2208 35.8511 64.6237 36.7864 64.4019 37.214C64.295 37.4092 64.3899 37.5628 64.5928 37.5628C65.4445 37.5586 66.2905 37.5592 67.0949 37.5597C67.3596 37.5599 67.6198 37.5601 67.8742 37.5601C68.0453 37.5541 68.1216 37.4736 68.2075 37.3529C68.5958 36.7451 68.9787 36.1442 69.359 35.5475L69.3592 35.5471C70.6046 33.5928 71.8213 31.6833 73.1041 29.7246C73.1977 29.5739 73.2842 29.6885 73.2878 29.7545C73.3238 30.3478 73.4679 31.1592 73.8204 31.692C74.4534 32.677 75.3503 33.1003 76.3451 33.1068C77.1366 33.1188 77.5371 32.9956 78.3907 32.6768C79.0852 32.4192 79.6428 32.0812 80.0707 31.7752C80.3205 31.6011 80.3643 31.8923 80.3583 31.9368C79.974 33.9995 80.4484 36.4437 82.4986 37.4571C84.952 38.6668 87.6473 36.9665 89.1983 35.4316C89.3502 35.2839 89.5129 35.2994 89.5285 35.6183C89.5645 36.2044 89.8263 36.8998 90.3112 37.3865C91.6109 38.6908 94.2335 38.1739 96.8655 36.1367C98.5553 34.8324 100.323 32.9896 101.921 31.0383C101.981 30.9626 102.024 30.8413 101.909 30.7182C101.749 30.5509 101.542 30.3677 101.35 30.1981L101.35 30.198L101.35 30.1979C101.25 30.1096 101.155 30.0249 101.072 29.9481C100.962 29.8545 100.801 29.8815 100.708 29.9514C100.245 30.3921 99.7947 30.8504 99.3388 31.3142C98.1844 32.489 96.9947 33.6996 95.4678 34.7524C94.7494 35.2537 93.6045 35.6582 93.0903 34.962C92.8897 34.6918 92.9126 34.3182 93.1084 33.8277C93.5522 32.7206 98.7033 24.7552 101.791 19.9803C103.023 18.0758 103.926 16.6789 104.072 16.4272L104.074 16.4316Z" fill="#2A2A2A" fill-opacity="0.6"/>
</svg>
