<svg width="75" height="61" viewBox="0 0 75 61" fill="none" xmlns="http://www.w3.org/2000/svg">
<path fill-rule="evenodd" clip-rule="evenodd" d="M14.1481 1.755C14.1481 2.70183 13.5959 2.63058 13.1534 2.31985C11.5633 1.2032 9.61381 0.400058 7.87254 0.413121C5.03402 0.433704 0.966432 1.80804 0.953369 7.79304V51.7978C0.996515 59.4414 4.6746 60.8696 8.30043 60.908C10.3874 60.9279 11.666 60.1184 12.6522 59.4939C12.9999 59.2738 13.3113 59.0767 13.609 58.947C14.2114 58.6842 14.8705 59.2922 14.8705 60.4215H16.0425V32.4258H18.3942V31.4845H8.46193V32.4258H11.3432V56.5067C11.3432 58.4593 10.0168 59.937 8.34556 59.9401C6.7357 59.9401 5.50229 58.411 5.50229 56.5067V6.04346C5.49991 4.6715 5.74335 1.48187 7.86462 1.49691C11.948 1.52739 14.1156 13.4689 14.1457 19.6463H15.3178V0.960161H14.1512L14.1481 1.755ZM63.477 1.93969H65.9375C68.2646 1.93731 69.3452 4.10687 69.3452 5.7476V31.2844C69.3476 33.1246 68.2646 34.8307 66.1802 34.8184H63.477V1.93969ZM65.9529 0.992852H56.1652V1.93969H58.7551V59.3427H56.1652V60.358H67.2077V59.3427H63.4766V35.9853H66.694C71.3751 35.9853 74.0394 33.5197 74.0394 30.2054V7.26602C74.0398 3.96002 71.74 0.987706 65.9529 0.992852ZM35.0389 9.28392L32.1778 34.8995H37.9597L35.0389 9.28392ZM40.7401 59.3299L38.0793 35.9477H32.0594L29.7426 56.5809C29.5376 57.9984 30.482 59.3319 32.5677 59.3303V60.3453H25.1981V59.3315C28.0092 59.2893 28.2237 58.0986 28.5727 56.1613L28.5856 56.0896L34.6514 0.979729H38.8333L45.363 59.3299H47.9526V60.3449H38.1248V59.3299H40.7401Z" fill="#2A2A2A" fill-opacity="0.6"/>
</svg>
