<svg width="129" height="47" viewBox="0 0 129 47" fill="none" xmlns="http://www.w3.org/2000/svg">
<path fill-rule="evenodd" clip-rule="evenodd" d="M2.26183 23.8264C2.26183 12.2351 30.0481 2.76254 64.3276 2.76254C98.6067 2.76254 126.391 12.2351 126.391 23.8264C126.391 35.4185 98.6067 44.8918 64.3276 44.8918C30.0481 44.8918 2.26183 35.4185 2.26183 23.8264ZM0 23.8264C0 36.5149 28.8002 46.8008 64.3276 46.8008C99.8518 46.8008 128.65 36.5149 128.65 23.8264C128.65 11.1359 99.8518 0.851807 64.3276 0.851807C28.8002 0.851807 0 11.1359 0 23.8264ZM57.5126 18.4036C57.5547 18.6258 57.6412 18.669 57.742 18.6504C58.2428 18.5501 58.7909 18.1382 59.1154 17.6607C59.4108 17.2278 59.5495 16.603 59.2559 16.3527C58.9941 16.1275 58.5678 16.1911 58.2518 16.4703C57.6224 17.0263 57.4313 17.8153 57.5124 18.404L57.5126 18.4036ZM32.4536 37.6725C28.7877 37.6965 25.5581 35.4326 25.1875 31.5107C24.9815 29.3374 25.5958 27.4006 26.8256 25.8049C27.9169 24.383 29.7634 23.2018 31.3265 22.9132C31.8351 22.8202 32.5184 22.8772 32.801 23.2159C33.2441 23.7317 33.1168 24.2983 32.6736 24.5243C31.4811 25.1332 30.0463 26.1755 29.3363 27.5987C28.7604 28.7604 28.6441 30.1603 29.5237 31.494C30.9958 33.7167 35.0995 33.7778 38.915 30.2331C39.86 29.3655 40.7056 28.532 41.5652 27.5446C43.2457 25.6231 43.8047 24.923 46.0385 21.8244C46.0626 21.7883 46.0746 21.7414 46.0625 21.7186C46.0445 21.6766 46.0146 21.6706 45.9479 21.6646C44.4567 21.7066 43.1565 22.1504 41.8927 23.0948C41.5289 23.3602 41.0051 23.323 40.7757 22.9735C40.5205 22.5784 40.7037 22.0641 41.1235 21.7736C42.9719 20.488 44.9757 20.1594 47.029 19.8226L47.0293 19.8226C47.2341 19.789 47.4394 19.7553 47.6451 19.7206C47.6432 19.7206 47.8024 19.7266 47.9321 19.556C48.3263 19.0502 48.6795 18.5654 49.0312 18.0827L49.0313 18.0826C49.5103 17.4252 49.9863 16.7719 50.5585 16.0751C51.5585 14.8492 52.8502 13.7234 53.837 12.8777C55.0273 11.8543 55.8487 11.4176 56.6292 11.0026L56.6295 11.0024C56.7522 10.9372 56.8739 10.8725 56.9959 10.8061C57.2324 10.6824 56.9658 10.5347 56.8938 10.5347C56.5257 10.4655 56.1565 10.3949 55.7865 10.324C51.1171 9.43005 46.3052 8.5088 41.6925 10.2164C38.2448 11.503 36.7339 14.2371 37.4606 16.064C37.9776 17.36 39.682 17.5707 41.2777 16.7898C42.603 16.1405 43.8294 15.0939 44.6988 13.7467C45.1852 12.9985 46.2101 13.5383 45.6564 14.8375C44.1996 18.2615 41.4166 20.9774 38.0266 21.0921C35.1415 21.1858 33.2801 19.0633 33.2861 16.4448C33.2981 11.2802 39.0475 7.87816 45.09 7.36957C50.1814 6.9488 55.0846 7.77136 60.0452 8.60355C62.1745 8.96076 64.3143 9.31973 66.4842 9.58293C72.0199 10.2533 77.3272 10.2672 82.8914 8.98902C83.5491 8.84611 84.0107 9.26583 83.9678 9.93018C83.9137 10.8905 83.1697 11.8154 81.3372 12.8149C79.253 13.9579 77.0726 14.3048 74.7954 14.3234C71.0084 14.3564 67.3998 13.3505 63.7888 12.3438C62.1494 11.8868 60.5094 11.4297 58.8521 11.0695C58.8531 11.1101 58.8559 11.1521 58.8586 11.1944V11.1945C58.8717 11.3947 58.8854 11.6043 58.7248 11.7254C55.7847 13.894 53.1272 16.0962 51.3473 19.1893C51.2873 19.2607 51.3173 19.3286 51.4236 19.3214C51.9279 19.2945 52.4156 19.2722 52.8941 19.2503L52.8946 19.2503C53.882 19.2052 54.8296 19.1618 55.8014 19.0842C56.0536 19.0601 56.0631 19.0001 56.0409 18.8163C55.913 17.7502 56.2246 16.5345 57.1624 15.6982C58.1223 14.8376 59.3241 14.7397 60.1208 15.3596C61.0265 16.0653 60.9463 17.3347 60.451 18.2866C59.9466 19.2524 59.1136 19.769 58.3141 20.0198C58.3141 20.0198 58.146 20.0559 58.1712 20.2084C58.1893 20.3554 58.5932 20.6333 58.9314 20.866L58.9314 20.866C59.154 21.0192 59.3482 21.1528 59.3851 21.2166C59.4752 21.3697 59.4272 21.607 59.2633 21.7889C59.148 21.921 58.9673 22.0447 58.7361 22.0405C58.5556 22.0369 58.4435 21.9763 58.2204 21.8557L58.1969 21.843C57.7081 21.5782 57.0972 21.1428 56.6897 20.6295C56.551 20.456 56.4801 20.4524 56.1337 20.4716C54.5725 20.5617 52.1382 20.7971 50.4889 21.003C50.089 21.0511 50.0301 21.1273 49.9479 21.266L49.7698 21.5597L49.7698 21.5597C47.1915 25.8123 44.441 30.349 41.4277 33.4092C38.1212 36.7661 35.3727 37.6499 32.455 37.6728L32.4536 37.6725ZM90.7749 29.1506C90.7929 29.2659 90.9442 29.3764 91.0908 29.4286C91.1448 29.4466 91.1712 29.4827 91.1148 29.6052C90.7581 30.3697 90.426 30.858 90.0106 31.4684L90.0089 31.471C89.938 31.5752 89.8648 31.6829 89.7885 31.7962C89.3063 32.5155 88.7634 33.0767 88.1061 33.6165C87.1145 34.437 85.7376 35.3301 84.5992 34.7297C84.0936 34.4673 83.8747 33.7596 83.8845 33.1867C83.9085 31.5756 84.6253 29.9217 85.9487 28.2962C87.5621 26.3099 89.3457 25.2796 90.5163 25.8427C91.7273 26.4204 91.3409 27.8225 90.7985 28.9231C90.7564 29.0084 90.7565 29.0804 90.7745 29.1501L90.7749 29.1506ZM103.771 16.5972C103.858 16.4435 103.766 16.3312 103.572 16.3312C103.071 16.3312 102.493 16.3318 101.91 16.3324H101.91C101.314 16.3329 100.712 16.3335 100.179 16.3335C99.9281 16.3335 99.7984 16.3635 99.6801 16.5977C99.4243 17.0878 97.287 20.3275 95.6022 22.8814L95.6021 22.8814L95.6018 22.8819C94.7244 24.2119 93.9698 25.3558 93.6676 25.8283C93.5187 26.0384 93.3373 26.0089 93.3163 25.7682C93.2268 24.9486 92.5191 24.0066 91.404 23.5558C90.5542 23.2111 89.7235 23.1486 88.8597 23.2633C87.3004 23.4729 85.9112 24.2955 84.6898 25.2232C83.9186 25.8094 83.1917 26.4684 82.4567 27.1349C81.4371 28.0592 80.4018 28.9979 79.2105 29.7766C78.0913 30.5062 76.5586 31.1424 75.533 30.1927C74.6048 29.3322 74.7097 27.4209 76.1298 25.9427C76.2793 25.7878 76.4588 25.9186 76.4306 26.0561C76.2967 26.7246 76.4606 27.3895 76.9686 27.8556C77.5881 28.4111 78.4748 28.4737 79.2338 28.103C80.1292 27.6593 80.6555 26.8025 80.8089 25.83C81.0461 24.3215 79.885 22.991 78.432 22.8843C77.2516 22.8014 76.1197 23.2121 75.0168 24.1224C74.4637 24.5812 74.1497 24.9201 73.6715 25.6002C73.555 25.7677 73.376 25.7845 73.3814 25.5371C73.4354 23.6057 72.6374 22.5191 71.0407 22.4837C69.8013 22.4537 68.4773 23.1265 67.4452 23.9493C66.5975 24.6301 65.8297 25.4767 65.0518 26.3344C64.7915 26.6214 64.53 26.9097 64.2641 27.1934C64.132 27.3327 64.0173 27.326 63.9801 27.0558C63.9501 25.7762 63.6264 24.5368 63.0343 23.6566C62.8247 23.3503 62.3835 23.199 62.0129 23.4055C61.9814 23.4228 61.9354 23.4462 61.8786 23.4751L61.8784 23.4752C61.6275 23.6029 61.1665 23.8375 60.813 24.122C60.5981 24.2992 60.514 24.5556 60.6094 24.8843C61.1811 26.796 61.0556 28.9697 60.2798 30.8055C59.5675 32.4869 58.1834 34.0033 56.5565 34.5166C55.4848 34.8565 54.3707 34.6902 53.6813 33.74C52.7345 32.4287 53.1168 30.1481 54.5283 28.2546C55.7738 26.5871 57.5756 25.528 59.3727 24.846C59.5841 24.7643 59.6279 24.6286 59.5678 24.449C59.5083 24.2683 59.4268 24.0476 59.358 23.8614L59.358 23.8612C59.3143 23.7431 59.2759 23.6389 59.2514 23.5676C59.0863 23.1287 58.6249 23.0578 58.0613 23.119C56.7555 23.2709 55.5775 23.7183 54.414 24.3414C51.3671 25.973 49.8395 29.1308 49.1701 30.8201C48.8476 31.6317 48.572 32.1379 48.2158 32.5868C47.7354 33.1905 47.1325 33.7402 46.0299 34.7085C45.9303 34.7973 45.8558 34.9823 45.9399 35.1546C46.0522 35.3876 46.6256 36.1974 46.7874 36.2696C46.9669 36.3579 47.1752 36.2336 47.2587 36.1747C48.0302 35.6517 48.9532 34.8228 49.4049 34.2606C49.5634 34.0679 49.7262 34.149 49.8103 34.4414C50.2318 35.9453 51.3355 37.1732 52.8618 37.6869C55.6555 38.629 58.5532 37.2653 60.7405 34.8913C61.6838 33.8673 62.2179 33.0912 62.6304 32.492C62.8257 32.2082 62.9938 31.9641 63.165 31.7521C63.3104 31.572 63.4786 31.356 63.6673 31.1136L63.6673 31.1135L63.6673 31.1135C64.6505 29.8505 66.1908 27.8717 67.9707 26.5236C68.7487 25.9309 69.6693 25.4789 70.1323 25.7792C70.504 26.0199 70.6241 26.5795 70.0278 27.6638C68.6869 30.1124 66.9541 32.8266 65.6917 34.8041L65.6914 34.8046C64.9176 36.0167 64.3205 36.952 64.0987 37.3797C63.9918 37.5748 64.0866 37.7285 64.2896 37.7285C65.1413 37.7243 65.9873 37.7248 66.7917 37.7254C67.0564 37.7256 67.3166 37.7257 67.5709 37.7257C67.7421 37.7197 67.8184 37.6393 67.9043 37.5186C68.2926 36.9108 68.6755 36.3099 69.0558 35.7131L69.056 35.7128C70.3013 33.7584 71.5181 31.8489 72.8008 29.8902C72.8945 29.7395 72.9809 29.8541 72.9846 29.9202C73.0206 30.5135 73.1647 31.3248 73.5172 31.8577C74.1502 32.8427 75.0471 33.266 76.0419 33.2724C76.8334 33.2845 77.2339 33.1613 78.0875 32.8425C78.782 32.5849 79.3395 32.2468 79.7675 31.9409C80.0173 31.7667 80.0611 32.058 80.0551 32.1024C79.6708 34.1652 80.1452 36.6093 82.1953 37.6228C84.6488 38.8325 87.3441 37.1321 88.8951 35.5972C89.047 35.4495 89.2097 35.4651 89.2253 35.784C89.2613 36.37 89.5231 37.0654 90.0079 37.5521C91.3076 38.8564 93.9303 38.3395 96.5623 36.3024C98.2521 34.998 100.02 33.1553 101.617 31.2039C101.677 31.1283 101.721 31.007 101.605 30.8839C101.445 30.7165 101.239 30.5334 101.047 30.3638L101.047 30.3636L101.047 30.3635C100.947 30.2752 100.852 30.1906 100.769 30.1138C100.659 30.0201 100.498 30.0471 100.405 30.117C99.9418 30.5578 99.4915 31.016 99.0356 31.4799C97.8812 32.6547 96.6915 33.8653 95.1645 34.918C94.4461 35.4194 93.3013 35.8239 92.7871 35.1276C92.5865 34.8574 92.6094 34.4838 92.8051 33.9933C93.249 32.8863 98.4001 24.9208 101.488 20.1459C102.72 18.2415 103.623 16.8446 103.768 16.5928L103.771 16.5972Z" fill="#2A2A2A"/>
</svg>
