<svg width="108" height="33" viewBox="0 0 108 33" fill="none" xmlns="http://www.w3.org/2000/svg">
<path d="M54.7939 0.135254V13.1006H54.7122C53.07 11.2129 51.0181 10.5569 48.6374 10.5569C43.7606 10.5569 40.087 13.8722 38.7974 18.2554C37.3269 13.4257 33.5343 10.4664 27.9106 10.4664C23.3436 10.4664 19.7372 12.5164 17.8552 15.8569V11.7051H8.41508V7.19735H18.7169V0.135254H0V31.8165H8.41508V18.4989H16.8026C16.5526 19.4773 16.4191 20.5247 16.4191 21.6299C16.4191 28.2385 21.4676 32.8755 27.9106 32.8755C33.3286 32.8755 36.8991 30.3319 38.7876 25.6945H31.5763C30.6007 27.0876 29.8608 27.5014 27.9106 27.5014C25.6493 27.5014 23.6996 25.5284 23.6996 23.1896H38.3836C39.0205 28.4387 43.1093 32.9656 48.7204 32.9656C51.1408 32.9656 53.3569 31.775 54.7122 29.7646H54.7939V31.8155H62.212V0.135254H54.7939ZM23.9338 18.5937C24.4017 16.5814 25.9623 15.2663 27.9106 15.2663C30.0553 15.2663 31.5366 16.5409 31.9262 18.5937C32.0904 18.5937 23.9338 18.5937 23.9338 18.5937ZM50.2922 26.9924C47.5578 26.9924 45.8586 24.4446 45.8586 21.7844C45.8586 18.9408 47.3366 16.2063 50.2922 16.2063C53.3569 16.2063 54.5779 18.9408 54.5779 21.7844C54.5774 24.481 53.2837 26.9924 50.2922 26.9924Z" fill="#2A2A2A"/>
<path fill-rule="evenodd" clip-rule="evenodd" d="M69.6615 7.19642H79.7967V0.135254H62.2122V31.816H79.7967V24.7353H69.6615V18.4989H79.7967V11.7046H69.6615V7.19642ZM88.7463 21.761L79.7975 31.816H88.9511L93.3016 26.8911L97.6937 31.816H107.174L98.1458 21.7194L107.052 11.7046H97.9396L93.6716 16.5893L89.2394 11.7046H79.7975L88.7463 21.761Z" fill="#2A2A2A"/>
</svg>
