<svg width="113" height="49" viewBox="0 0 113 49" fill="none" xmlns="http://www.w3.org/2000/svg">
<path d="M45.8607 11.9278C45.8607 11.9278 46.2952 11.2761 46.66 10.7801C47.3251 9.87828 48.5271 8.62807 49.431 7.85336C49.7097 7.61766 50.0346 7.34815 50.0346 7.34815C50.0346 7.34815 49.5232 7.40144 49.2353 7.46087C48.5487 7.59512 47.5413 8.26429 47.0372 8.69674C46.2071 9.40586 45.2951 10.5618 45.706 11.5866C45.7675 11.7341 45.8607 11.9278 45.8607 11.9278ZM50.4762 13.1626C51.7879 13.0745 53.0176 12.6943 54.1602 12.062C55.2824 11.4349 56.9312 10.2113 56.7631 8.77051C56.7088 8.3063 56.4055 7.95378 56.0202 7.7888C55.518 7.57052 55.2578 7.60946 54.6173 7.79699C54.1541 7.93431 53.9461 8.0163 53.5085 8.26736C52.2194 9.01543 50.3963 10.6151 49.4054 11.893C49.1758 12.1922 48.9442 12.5293 48.7649 12.7589C48.6481 12.8993 48.561 13.0315 48.5712 13.0673C48.6101 13.2139 49.9628 13.1995 50.4762 13.1626ZM47.1345 15.6169C47.0003 15.7573 46.8578 16.1057 46.7082 16.3568C46.6293 16.49 46.4817 16.6622 46.3854 16.7298C46.0442 16.9809 45.7562 16.9921 45.4242 16.7021C44.963 16.2963 44.6966 15.662 44.6771 15.0472C44.6669 14.7776 44.711 14.4835 44.6628 14.254C44.5777 13.8728 44.1945 13.4813 43.9895 13.1155C43.7477 12.682 43.552 11.9329 43.5284 11.4492C43.4433 9.93874 44.2406 8.54917 45.2756 7.45063C46.3167 6.34082 47.6786 5.41853 49.1615 4.7924C50.5613 4.20009 52.6149 3.79839 54.1531 4.33229C54.6521 4.50445 55.351 4.93075 55.7015 5.37447C55.7753 5.46875 55.8367 5.57122 55.9136 5.61938C55.9802 5.66242 56.1595 5.67985 56.302 5.70547C56.7939 5.79052 57.501 6.16148 57.7889 6.40845C58.3659 6.90955 58.6856 7.38811 58.8321 8.08187C59.1272 9.47657 58.3238 11.0086 57.4087 11.9391C55.8398 13.5449 54.2914 14.6711 52.2849 15.4581C51.4057 15.8024 50.0335 16.1232 49.0334 16.033C48.7239 16.0074 48.4031 15.9264 48.1019 15.9039C47.9492 15.8905 47.3845 15.7481 47.3251 15.703C47.2503 15.6487 47.155 15.5975 47.1345 15.6169ZM48.9268 18.7117C48.9873 18.723 49.0826 18.7506 49.1635 18.7793C49.8665 19.0478 50.1555 19.6996 50.3287 20.4128C50.7304 22.0729 50.9025 25.7426 50.9681 27.1823C51.0173 28.2583 51.044 29.3231 51.0891 30.3878C51.127 31.2906 51.1987 32.4916 51.0122 33.3391C50.9435 33.6434 50.7406 33.9939 50.4486 34.1773C50.1135 34.3905 49.3541 34.4069 48.9371 34.3208C47.9072 34.1076 47.5721 33.4457 47.4266 32.4281C47.0771 29.9984 47.2441 25.2302 47.4511 23.2176C47.5178 22.5566 47.7699 20.4271 48.1172 19.5356C48.2341 19.2323 48.4872 18.6256 48.9268 18.7117ZM17.2085 22.3578C17.2085 22.3578 15.6837 22.4654 14.6364 22.5822C13.3011 22.7246 10.7935 23.1581 9.34861 23.6777C8.91309 23.8293 8.03077 24.1993 7.95392 24.644C7.87603 25.1093 8.16092 25.4689 8.48167 25.845C8.66613 26.0613 9.71138 27.0665 10.0034 27.3115C11.2321 28.3352 13.7223 29.9184 15.5597 30.687C16.1868 30.9483 17.23 31.3213 17.23 31.3213C17.23 31.3213 17.1521 28.3526 17.1675 25.429C17.1737 23.8836 17.2085 22.3578 17.2085 22.3578ZM45.1444 23.5393C45.2326 24.3366 45.0256 25.845 44.9917 26.0438C44.9262 26.5019 44.5798 27.5584 44.5245 27.6886C44.2447 28.329 43.9711 28.8588 43.678 29.3825C43.1779 30.2822 41.9912 31.7077 41.2842 32.3174C38.6628 34.5842 34.6027 35.8754 31.1186 36.3006C28.7565 36.5865 26.0409 36.5425 23.5354 36.0803C22.6746 35.9215 21.3936 35.6284 21.3936 35.6284C21.3936 35.6284 21.3967 36.1408 21.3547 36.5025C21.3352 36.6644 21.2102 37.0989 21.1415 37.2393C20.9581 37.6154 20.6599 37.8091 20.2264 37.8911C19.7017 37.9915 19.1453 38.0212 18.6596 37.8162C17.8643 37.4791 17.5774 36.7331 17.4401 35.8784C17.3274 35.1898 17.2095 33.9939 17.2095 33.9939C17.2095 33.9939 16.6152 33.7131 16.1182 33.4651C14.5933 32.713 13.1433 31.805 11.8777 30.8663C11.5273 30.6071 10.0188 29.3425 9.68474 29.0269C8.75118 28.1446 7.91191 27.2612 7.27246 26.1299C6.77545 25.2466 6.63301 24.4606 7.01012 23.525C7.53275 22.2205 9.40293 21.2357 10.6839 20.6751C11.6256 20.2601 14.5472 19.306 15.7626 19.1298C16.3354 19.0478 17.2249 18.89 17.2792 18.8531C17.3018 18.8367 17.3182 18.8224 17.3335 18.8029C17.3612 18.7629 17.4083 17.4697 17.3991 16.9983C17.3889 16.5331 17.7434 13.4823 17.8572 12.8378C17.9187 12.4863 18.1831 11.1428 18.4536 10.7913C18.6288 10.5536 18.9414 10.57 19.1955 10.7288C20.5882 11.5927 21.0104 14.5973 21.1139 16.1262C21.1764 17.0567 21.2071 18.4576 21.2071 18.4576C21.2071 18.4576 22.8047 18.4114 23.7885 18.4371C24.7425 18.4606 25.795 18.6123 26.7869 18.7701C28.0566 18.971 30.5304 19.511 31.9486 20.2314C33.1179 20.8227 34.2103 21.8218 34.5638 22.8784C34.8938 23.8468 34.8436 24.5149 34.3425 25.389C33.7799 26.3769 32.7131 27.1086 31.632 27.169C31.3092 27.1905 30.0989 27.0286 29.7269 26.7407C29.5794 26.6238 29.5876 26.4168 29.6942 26.2765C29.7341 26.2252 30.2988 25.9291 30.6339 25.7508C30.8009 25.6595 30.9403 25.5622 31.0694 25.4433C31.3481 25.1964 31.5971 24.9279 31.5695 24.6143C31.5305 24.2044 31.0991 23.9513 30.6851 23.7894C28.7483 23.0208 24.8809 22.3803 23.0097 22.2696C22.278 22.2266 21.2389 22.1897 21.2389 22.1897L21.4582 32.5111C21.4582 32.5111 22.319 32.6761 22.9963 32.7867C23.3868 32.8441 25.0346 32.9927 25.4722 33.004C28.8077 33.0921 32.5307 32.7949 35.5916 31.347C36.9351 30.7147 38.1679 29.9287 39.1004 28.864C40.3322 27.4508 40.9767 25.5222 40.8056 23.5076C40.6181 21.3023 39.0676 18.6912 37.8318 17.0997C34.5618 12.8931 28.9574 9.43661 24.0283 7.40964C18.9936 5.34065 14.0195 4.14783 8.67535 3.94903C7.2991 3.89985 4.29451 3.96953 2.77889 4.38968C2.55959 4.45014 2.34234 4.52392 2.14047 4.56696C1.9806 4.6059 1.73261 4.71145 1.66293 4.76576C1.62604 4.79958 1.58607 4.83955 1.58607 4.83955C1.58607 4.83955 1.68035 4.89078 1.76951 4.93075C1.93039 5.00146 2.60776 5.04142 2.95822 5.10496C3.26975 5.16439 3.5987 5.33142 3.72577 5.562C3.84874 5.77924 3.86616 5.95038 3.71757 6.13176C3.37326 6.55294 2.07796 6.47916 1.50922 6.39103C0.916911 6.2947 0.180109 6.11537 0.0438167 5.59889C-0.111946 4.99121 0.173957 4.39582 0.486508 3.84451C1.11366 2.74289 2.0093 2.16902 3.32509 1.81138C5.19015 1.299 7.54607 0.939312 9.30865 0.871681C13.298 0.723091 17.0722 1.41788 20.9355 2.59328C23.147 3.2604 26.045 4.3825 28.1632 5.40418C29.6819 6.13586 32.0798 7.48649 33.4263 8.36881C33.8506 8.64857 36.3356 10.4737 36.7209 10.7944C37.5264 11.4523 38.5808 12.3982 39.3412 13.1555C40.8169 14.6178 42.6522 16.8579 43.5458 18.6348C43.7579 19.0632 43.926 19.4823 44.2006 19.9752C44.2959 20.1433 44.7048 21.1557 44.7724 21.4488C44.8391 21.7378 44.9374 22.1631 44.9518 22.1784C44.9723 22.3352 45.1588 23.2022 45.1444 23.5393ZM62.3296 24.2894C62.4044 24.2966 62.4229 24.2997 62.4915 24.3099C63.713 24.476 64.91 24.6953 65.8251 25.1052C66.6746 25.4823 67.1747 25.9557 67.6286 26.8032C68.3203 28.0872 68.3665 29.8836 67.7414 31.2445C67.273 32.2559 66.2483 33.1054 65.3137 33.5563C64.3392 34.0277 63.3851 34.2511 62.2866 34.3761C60.3703 34.5862 58.2941 34.1907 56.5664 33.3545C55.5447 32.8554 54.2965 31.9966 53.6663 30.8889C53.2031 30.0752 53.2175 29.0208 53.7821 28.2501C54.6788 27.0225 56.6002 26.7519 58.0502 26.8032C59.1549 26.8442 61.1409 27.1875 62.1913 27.5584C62.4833 27.664 63.5542 28.0821 63.7407 28.2706C63.8719 28.4059 63.959 28.5975 63.8995 28.7789C63.6577 29.5116 61.8797 29.8979 61.3663 29.9748C59.988 30.1849 59.2748 29.6653 57.71 29.0474C57.3216 28.8957 56.8041 28.7277 56.4065 28.6908C55.6974 28.6231 54.8397 28.8189 54.7054 29.5967C54.6357 29.9973 55.1051 30.3704 55.4627 30.5251C56.302 30.8889 56.9845 31.017 57.8125 31.0303C60.2504 31.0672 62.9916 30.6665 64.9889 29.2523C65.2645 29.0587 65.531 28.7717 65.5351 28.412C65.5351 28.3659 65.4695 27.9786 65.3445 27.9386C65.326 27.9304 65.3065 27.9396 65.2922 27.9366C65.2461 27.9232 65.1692 27.7972 65.1047 27.7142C64.9612 27.539 64.3822 27.2899 64.2685 27.2418C62.924 26.6812 60.44 26.4086 59.158 26.3031C57.8156 26.1883 55.7035 26.01 55.1952 25.9362C54.6736 25.8624 54.1059 25.7589 53.652 25.555C53.2 25.3501 52.7553 24.891 52.6221 24.3837C52.3884 23.4676 52.6887 22.3424 53.197 21.6087C54.5312 19.6903 57.6526 18.9638 59.988 18.6748C62.2476 18.393 65.8999 18.3961 68.1185 19.5756C68.4618 19.758 68.638 19.9291 68.5642 20.296C68.4208 20.9836 67.9002 21.4263 67.2761 21.621C66.6203 21.83 65.2604 21.911 64.664 21.9479C61.9884 22.0985 58.7553 22.0196 56.2087 22.7154C56.0089 22.7728 55.6646 22.862 55.5508 22.989C55.1522 23.4215 56.2917 23.5444 56.5367 23.5977C56.6084 23.6121 56.6238 23.6152 56.6986 23.6223L62.3296 24.2894ZM70.6763 34.2962C69.5962 33.8996 69.3513 32.1555 69.301 31.2732C69.1299 28.4008 69.8893 24.4042 70.8536 21.7122C71.1292 20.9457 71.5258 19.6934 72.3835 19.7641C72.9738 19.8164 73.3949 20.2714 73.7259 20.7387C74.5724 21.9325 75.6853 23.5506 76.4231 24.6768C77.248 25.9393 78.0402 27.211 78.819 28.3618C78.9143 28.5012 79.0045 28.6365 79.109 28.7225C79.2504 28.8363 79.3775 28.8424 79.4349 28.7369C79.4615 28.6959 79.4103 27.2448 79.3744 26.9538C79.314 26.4906 79.2863 26.1156 79.234 25.7159C79.0905 24.5549 78.7206 22.9214 78.4306 21.8167C78.1109 20.5808 77.7205 19.2927 77.4284 18.0968C77.3351 17.7085 77.248 17.316 77.2511 16.946C77.2542 16.4111 77.5975 16.115 78.1549 16.3148C79.2535 16.7021 80.7097 19.0868 81.1339 19.9148C81.2784 20.1945 81.8502 21.6169 81.9783 22.0155C82.4343 23.3815 82.71 24.6768 82.836 26.1658C82.957 27.6127 82.8555 29.7207 82.2437 31.1471C82.0193 31.6718 81.5582 32.3779 81.1749 32.7334C80.5734 33.2909 79.3744 33.7264 78.5485 33.2551C77.6446 32.7427 76.1598 30.1705 75.9066 29.7309C75.0448 28.2266 73.562 25.2845 73.3324 24.9545C73.2822 24.8818 73.2166 24.8121 73.1019 24.7772C73.0148 24.7516 72.9799 24.933 72.9574 25.0508C72.8098 25.9075 72.7084 29.9143 72.7063 30.026C72.6817 30.7003 72.6489 32.3543 72.4542 33.169C72.3271 33.7008 72.198 34.1374 71.7092 34.3608C71.3618 34.5176 71.0974 34.452 70.6763 34.2962ZM85.566 34.04C85.4492 33.9509 85.2606 33.7582 85.1233 33.6035C85.1018 33.582 84.7134 32.9999 84.6365 32.8206C84.5689 32.6658 84.5177 32.5541 84.4685 32.425C84.1149 31.5119 84.1242 30.6132 84.3199 29.6325C84.5013 28.7174 84.6734 28.6775 85.1428 27.4211C85.1725 27.3524 85.1868 27.293 85.1971 27.2172C85.2165 27.045 84.9378 25.887 84.9214 25.5151C84.902 24.9473 85.3426 24.5446 86.0804 24.4667C86.1481 24.4606 86.1983 24.4616 86.2475 24.4473C86.5416 24.3755 86.7301 23.8119 86.891 23.36C87.1154 22.7246 87.4659 21.7562 87.4659 21.7562C87.4659 21.7562 86.5334 21.541 86.0343 21.3525C85.4768 21.1424 85.0557 20.8709 84.8036 20.3595C84.5013 19.761 84.7001 19.429 85.3252 19.2353C85.5547 19.1616 87.3644 18.8142 87.9363 18.7332C88.6495 18.6287 89.3207 18.5395 89.9991 18.4555C90.5894 18.3838 93.2968 18.0702 94.1586 18.0927C95.4723 18.1307 96.3249 18.6717 97.0925 19.7836C97.5054 20.3769 97.7873 21.082 97.1642 21.4642C96.2071 22.0452 93.1062 22.0893 92.5374 22.0954C91.6326 22.1047 90.3813 22.0893 90.3813 22.0893L89.7501 24.1993C89.7501 24.1993 91.9718 24.1757 93.2199 24.1706C93.5232 24.1706 93.8266 24.187 93.9967 24.2228C94.6341 24.3643 94.8544 24.8541 94.88 25.5601C94.9149 26.3861 94.7591 26.7663 94.1012 26.877C93.761 26.9313 89.9448 26.9538 89.4273 27.0143C89.1045 27.0491 88.7633 27.1004 88.7633 27.1004C88.7633 27.1004 88.4876 27.8197 88.2478 28.5463C88.0059 29.3036 87.7989 30.0752 87.7989 30.0752C87.7989 30.0752 87.9926 30.0834 88.1535 30.0834C88.422 30.0855 88.6946 30.0465 88.9077 30.0096C90.0719 29.7965 91.8027 29.5403 93.223 29.3169C93.9864 29.195 94.3707 29.1406 94.7724 29.6469C95.1198 30.0947 95.3002 30.4698 95.3248 31.0108C95.3463 31.5201 94.9579 31.8573 94.4834 32.22C92.9822 33.3678 90.4162 34.6118 88.504 34.825C87.6206 34.9244 87.4054 34.826 86.6318 34.6241C86.4842 34.5862 85.9492 34.3362 85.9544 34.3095C85.9544 34.3095 85.6644 34.1169 85.566 34.04ZM109.693 23.4358C108.709 24.2597 107.438 25.9393 106.832 26.8114C106.021 27.9673 105.259 29.2913 104.529 30.3171C104.372 30.5476 103.902 31.3726 103.918 31.4002C103.951 31.4587 104.425 31.4402 104.911 31.3582C105.947 31.184 107.356 30.4564 108.109 29.8559C109.255 28.9367 110.054 27.6742 110.431 26.1975C110.598 25.5263 110.683 24.1193 110.207 23.4932C110.114 23.3733 109.876 23.279 109.693 23.4358ZM101.88 35.4993C101.88 35.4993 101.569 36.4134 101.34 37.1307C100.946 38.3686 100.078 41.7021 99.8767 42.7382C99.5744 44.2753 98.7136 48.3036 98.6696 48.3897C98.6091 48.5065 98.5691 48.5434 98.4236 48.6367C98.0691 48.8447 97.9266 48.776 97.4972 48.5465C96.9398 48.2534 96.4499 47.9542 96.0318 47.4018C95.1915 46.3105 95.3924 44.2569 95.5564 43.0517C96.1333 38.8369 96.7164 36.9831 98.3201 32.7878C98.3468 32.716 98.3468 32.6996 98.314 32.6361C97.8139 31.5714 97.5444 30.2853 97.5444 29.2462C97.5485 25.9578 99.4381 22.7041 101.557 20.091C101.717 19.8922 102.757 18.6461 103.23 18.6707C103.703 18.6932 103.78 19.2456 103.709 19.7067C103.472 21.2254 102.403 22.7728 101.672 24.0538C100.85 25.4853 100.672 26.0746 100.27 27.3873C100.206 27.5922 100.045 28.5514 100.052 28.6744C100.068 29.0269 100.145 29.4716 100.145 29.4716C100.145 29.4716 101.482 27.6004 102.364 26.4455C102.845 25.8112 103.192 25.3921 103.594 24.9402C104 24.4811 105.567 22.8527 106.018 22.4234C106.966 21.5185 107.386 21.1424 108.411 20.6106C109.224 20.1904 109.953 20.0859 110.745 20.6095C112.002 21.4345 112.549 23.1796 112.69 24.5948C112.855 26.2857 112.51 28.1876 111.764 29.6356C110.88 31.3633 109.671 32.6074 108.029 33.6957C106.349 34.8086 104.378 35.5659 102.446 35.5208C102.184 35.5146 101.88 35.4993 101.88 35.4993Z" fill="#2A2A2A"/>
</svg>
