<svg width="100" height="82" viewBox="0 0 100 82" fill="none" xmlns="http://www.w3.org/2000/svg">
<path d="M45.6132 81.2271C26.4737 79.6806 10.5046 69.9153 3.4803 55.4758C-0.419074 47.4501 -1.02941 38.3477 1.778 29.9634C3.74832 24.0808 6.56401 19.6374 11.3619 14.8475C15.0761 11.142 18.5426 8.59385 23.0113 6.29402C28.5968 3.41663 33.7659 1.69384 40.3448 0.522908C44.2487 -0.173616 55.2259 -0.173616 59.1873 0.518798C71.2031 2.62111 80.6185 7.27102 88.1985 14.8351C91.8716 18.4995 93.9037 21.2573 95.9194 25.3056C101.097 35.7015 100.709 47.6639 94.8684 57.8742C88.7885 68.5014 76.9906 76.668 63.0824 79.8749C58.5444 80.9136 49.9904 81.577 45.6132 81.2271ZM59.7398 78.0982C70.7211 76.1354 79.7895 71.5851 86.8017 64.5154C100.804 50.3929 100.743 30.4454 86.6443 16.3723C83.0868 12.8195 79.5998 10.3418 74.7271 7.90983C57.9044 -0.495248 36.8484 0.283944 21.143 9.8926C5.44205 19.5011 -1.2399 36.0021 4.3084 51.448C9.33319 65.4307 24.0699 75.9581 42.1456 78.4734C46.4129 79.0664 55.3827 78.8774 59.7398 78.0982Z" fill="#2A2A2A" fill-opacity="0.6"/>
<path d="M36.3183 33.9611C36.3183 33.9611 35.7534 33.6687 34.7435 33.6851C32.9504 33.7104 31.7057 34.86 31.7057 34.86L31.2477 33.6687H27.7771L27.7566 52.1113H32.0762V40.9445C32.0762 39.9258 32.5582 39.4315 32.9504 39.0768C34.1006 38.0341 36.3177 38.0006 36.3177 38.0006L36.3183 33.9611ZM90.3187 33.9611C90.3187 33.9611 89.7491 33.6687 88.7398 33.6851C86.9385 33.7104 85.7014 34.86 85.7014 34.86L85.244 33.6687H81.7687L81.7482 52.1113H86.0719V40.9445C86.0719 39.9258 86.5504 39.4315 86.9379 39.0768C88.0963 38.0341 90.3139 38.0006 90.3139 38.0006V33.9611H90.3187ZM68.1042 55.2561H68.2029L68.3185 55.2649C68.3966 55.269 68.4465 55.2807 68.4917 55.293C68.5581 55.3218 68.608 55.3711 68.6285 55.4334C68.6409 55.4704 68.6614 55.5526 68.6614 55.6718C68.6696 55.7833 68.6738 55.8743 68.6902 55.936H69.1722L69.1599 55.8819C69.1517 55.862 69.1476 55.845 69.1476 55.8244C69.1394 55.808 69.1394 55.7874 69.1394 55.7674V55.5942C69.1394 55.4005 69.0859 55.2555 68.9708 55.1651C68.9133 55.1193 68.8188 55.0828 68.6943 55.0541C68.8311 55.0412 68.9421 55.0006 69.0284 54.9267C69.1235 54.8521 69.1646 54.737 69.1646 54.5761C69.1646 54.3618 69.0824 54.2092 68.9133 54.1141C68.81 54.0601 68.6826 54.0319 68.5299 54.0154C68.497 54.0113 68.369 54.0113 68.1301 54.0113H67.594V55.936H68.1013L68.1042 55.2561ZM68.5698 54.8404C68.5041 54.8897 68.4131 54.9061 68.298 54.9061H68.1042V54.3454H68.2205C68.3473 54.3454 68.443 54.3577 68.517 54.3871C68.6203 54.4329 68.6738 54.4981 68.6738 54.6055C68.6732 54.7165 68.6403 54.7863 68.5698 54.8404ZM69.5838 53.7401C69.2456 53.4013 68.8376 53.2375 68.3561 53.2375C67.9023 53.2375 67.5024 53.3937 67.1642 53.7113C66.7972 54.0454 66.6158 54.4652 66.6158 54.976C66.6158 55.4627 66.7808 55.8708 67.1231 56.2096C67.4531 56.5472 67.8653 56.7122 68.3514 56.7122C68.8246 56.7122 69.2333 56.5513 69.5668 56.2254C69.9173 55.879 70.087 55.4674 70.087 54.976C70.0911 54.4898 69.9261 54.0818 69.5838 53.7401ZM69.3736 53.9585C69.6507 54.2426 69.7899 54.5808 69.7899 54.9725C69.7899 55.3676 69.6507 55.7058 69.3736 55.9941C69.0941 56.2742 68.7642 56.418 68.3596 56.418C67.9598 56.418 67.631 56.2742 67.3498 55.9982C67.0609 55.7175 66.9253 55.3752 66.9253 54.9713C66.9253 54.5838 67.0615 54.2374 67.3421 53.9573C67.6222 53.6731 67.9598 53.5287 68.3596 53.5287C68.756 53.5293 69.0894 53.6737 69.3736 53.9585ZM40.4693 42.8862C40.4693 39.5841 41.2896 37.1939 43.3675 37.1939C45.4536 37.1939 46.2656 39.5841 46.2656 42.8862C46.2656 46.1889 45.4536 48.5785 43.3675 48.5785C41.2896 48.5785 40.4693 46.1877 40.4693 42.8862ZM50.4407 42.9026C50.4407 37.7992 48.0252 33.6728 43.351 33.6728C38.7831 33.6728 36.2601 37.7992 36.2601 42.9026C36.2601 47.9937 38.4325 52.1319 43.351 52.1319C48.1738 52.1319 50.4407 47.9937 50.4407 42.9026ZM73.4261 37.1933C74.8405 37.1933 75.6607 38.2854 76.0564 40.0045H70.8168C71.2037 38.2854 72.0328 37.1933 73.4261 37.1933ZM76.5132 44.6993C76.2496 47.0244 75.4006 48.5785 73.7226 48.5785C71.6899 48.5785 70.8573 46.2746 70.8244 43.08H76.616V43.0847H80.7952V43.08C80.8493 41.3937 80.5187 40.0045 80.5187 40.0045H80.5111C79.7478 36.3237 77.4568 33.6687 73.7049 33.6687C69.1376 33.6687 66.6147 37.7957 66.6147 42.8985C66.6147 47.9896 68.7912 52.1284 73.7049 52.1284C77.947 52.1284 80.2099 48.9337 80.6919 44.6958L76.5132 44.6993Z" fill="#2A2A2A" fill-opacity="0.6"/>
<path d="M58.561 48.5974C56.4796 48.5974 55.6423 46.1978 55.6423 42.8799C55.6423 39.5614 56.4755 37.1541 58.561 37.1541C60.6594 37.1541 61.4714 39.5614 61.4714 42.8799C61.4714 46.1978 60.6594 48.5974 58.561 48.5974ZM65.6348 52.7197C65.6225 51.3758 65.6348 33.6377 65.6348 33.6377H61.0551V34.6476C60.4985 34.0628 59.3483 33.6958 58.5445 33.6788C53.9519 33.5678 51.4214 37.7641 51.4214 42.8922C51.4214 48.0156 53.6102 52.122 58.5528 52.122C59.5174 52.122 60.3664 51.7181 61.1256 51.421C61.3358 55.0278 61.4591 66.9279 53.5533 67.1757C44.9875 67.3695 45.9193 54.9661 45.8447 54.6115C45.2634 54.6115 41.1822 54.6244 41.1822 54.6244C41.1822 54.6497 40.5558 70.2758 53.0454 70.2758C66.5784 70.2799 65.6513 54.0672 65.6348 52.7197ZM34.1495 14.3337C28.1348 14.3337 24.7265 17.7098 23.0567 21.6789L23.0443 21.6747C23.0197 21.7493 22.9909 21.8192 22.9662 21.8979C22.9539 21.9143 22.9457 21.9348 22.9416 21.9513C22.1419 24.0579 22.0468 25.8258 22.0468 26.0448C22.3227 35.9751 17.5622 36.5934 17.5622 36.5934C17.4835 35.7444 17.5622 25.0144 17.5622 25.0144H12.9865V52.122H17.5786V40.8225C17.5786 40.3657 21.6346 40.7979 21.9111 45.9641C21.9364 46.4256 21.9111 52.122 21.9111 52.122H26.7586C26.6558 51.3793 27.7438 39.2854 21.6804 39.1944C20.7157 39.1785 26.6764 37.8176 26.4949 28.8971C26.4492 26.9062 26.6764 25.1089 27.1132 23.5548C28.1143 20.3642 29.9244 17.4955 33.6428 17.4462C42.023 17.3387 41.0707 30.9915 41.1781 31.2058C41.7635 31.2058 45.8447 31.2011 45.8447 31.2011C45.8441 31.1811 46.6685 14.3337 34.1495 14.3337Z" fill="#2A2A2A" fill-opacity="0.6"/>
</svg>
