<svg width="115" height="23" viewBox="0 0 115 23" fill="none" xmlns="http://www.w3.org/2000/svg">
<path d="M6.65238 2.0991C6.00619 3.21571 5.46339 4.17207 5.44788 4.21859C5.4117 4.31164 5.55644 4.57012 7.96543 8.72122C8.4772 9.60003 8.88042 10.3289 8.87009 10.3393C8.85975 10.3548 8.80805 10.2979 8.75636 10.2204C8.3428 9.58969 7.31924 8.84011 6.47661 8.55062C5.43238 8.18359 4.23822 8.20427 3.28704 8.60232C2.65119 8.86596 2.64085 8.72639 3.42661 10.0498C4.60526 12.0349 4.87924 12.5053 4.89992 12.5518C4.91026 12.5828 4.78102 12.4846 4.6156 12.3399C4.19687 11.9832 3.90738 11.8229 3.43178 11.704C2.73907 11.5282 2.19111 11.5851 1.51907 11.9108C0.604073 12.3554 0.0561072 13.1825 0.00441233 14.2164C-0.0369436 15.0797 0.211192 15.7414 0.800514 16.3307C2.25314 17.7833 4.69314 17.194 5.37551 15.2193C5.52026 14.7902 5.53577 13.9838 5.40136 13.6012C5.34966 13.4616 5.31865 13.3376 5.33416 13.3272C5.34449 13.3169 5.86144 14.175 6.48178 15.2348C7.10212 16.2893 7.61907 17.1682 7.62424 17.1785C7.64492 17.1992 7.92407 17.0027 8.23424 16.7443C8.8339 16.248 9.43873 15.2813 9.63 14.5162C9.88331 13.5185 9.81093 12.3192 9.4439 11.4507C9.3922 11.3266 9.35602 11.2129 9.37153 11.2026C9.3922 11.1819 9.84195 11.947 11.2377 14.3663C11.5789 14.9608 12.0803 15.8293 12.3492 16.2893L12.8351 17.132H15.2596C17.5341 17.132 17.6841 17.1268 17.653 17.0441C17.6324 16.9924 17.2602 16.3359 16.8208 15.5811C16.3865 14.8264 15.1148 12.6293 14.0034 10.696C12.8868 8.76257 11.5789 6.49317 11.093 5.65571C9.48526 2.87452 8.72534 1.5563 8.29627 0.811897C8.06882 0.403509 7.86721 0.0726604 7.8517 0.0726604C7.83619 0.0726604 7.29339 0.987661 6.65238 2.0991Z" fill="#FEA334"/>
<path d="M24.0469 1.11897C26.1324 1.11897 27.6518 1.52862 28.6051 2.3479C29.5585 3.16718 30.0351 4.32163 30.0351 5.81124C30.0351 6.46666 29.9234 7.09974 29.7 7.71048C29.4914 8.30633 29.1414 8.84259 28.6498 9.31926C28.1582 9.79593 27.5028 10.1758 26.6835 10.4588C25.8642 10.7269 24.8587 10.861 23.6671 10.861H21.8348V17.0727H19.8239V1.11897H24.0469ZM23.8682 2.83947H21.8348V9.14051H23.4436C24.4565 9.14051 25.2982 9.03623 25.9685 8.82769C26.6388 8.60425 27.1378 8.25419 27.4656 7.77752C27.7933 7.30084 27.9571 6.67521 27.9571 5.90061C27.9571 4.87278 27.6294 4.10564 26.974 3.59917C26.3186 3.0927 25.2833 2.83947 23.8682 2.83947ZM37.5756 1.11897C39.661 1.11897 41.1804 1.52862 42.1338 2.3479C43.0871 3.16718 43.5638 4.32163 43.5638 5.81124C43.5638 6.46666 43.4521 7.09974 43.2286 7.71048C43.0201 8.30633 42.67 8.84259 42.1784 9.31926C41.6869 9.79593 41.0315 10.1758 40.2122 10.4588C39.3929 10.7269 38.3874 10.861 37.1957 10.861H35.3635V17.0727H33.3525V1.11897H37.5756ZM37.3968 2.83947H35.3635V9.14051H36.9723C37.9852 9.14051 38.8268 9.03623 39.4972 8.82769C40.1675 8.60425 40.6665 8.25419 40.9942 7.77752C41.3219 7.30084 41.4858 6.67521 41.4858 5.90061C41.4858 4.87278 41.1581 4.10564 40.5026 3.59917C39.8472 3.0927 38.8119 2.83947 37.3968 2.83947ZM46.8812 17.0727V1.11897H48.8922V15.2851H55.8635V17.0727H46.8812ZM62.0783 8.96175L66.2343 1.11897H68.4017L63.0838 10.8833V17.0727H61.0728V10.9727L55.7549 1.11897H57.9447L62.0783 8.96175Z" fill="#FEA334"/>
<path d="M72.5891 17.0727H70.5781V1.11897H79.4934V2.88416H72.5891V8.53722H79.0689V10.3024H72.5891V17.0727ZM86.656 17.0727H80.8912V15.9108L82.7681 15.4862V2.72775L80.8912 2.28087V1.11897H86.656V2.28087L84.779 2.72775V15.4862L86.656 15.9108V17.0727ZM98.6518 17.0727H89.7365V1.11897H98.6518V2.88416H91.7474V7.86689H98.2496V9.60973H91.7474V15.3075H98.6518V17.0727ZM106.554 1.11897C107.88 1.11897 108.967 1.29028 109.816 1.63289C110.68 1.9606 111.321 2.45962 111.738 3.12994C112.155 3.80027 112.364 4.64189 112.364 5.65483C112.364 6.5039 112.207 7.21147 111.894 7.77752C111.581 8.34357 111.179 8.7979 110.688 9.14051C110.211 9.46822 109.705 9.7289 109.168 9.92255L113.548 17.0727H111.202L107.336 10.4812H104.163V17.0727H102.152V1.11897H106.554ZM106.442 2.86181H104.163V8.783H106.554C107.418 8.783 108.126 8.67128 108.677 8.44784C109.228 8.2095 109.63 7.86689 109.883 7.42001C110.151 6.97313 110.286 6.41453 110.286 5.7442C110.286 5.04409 110.144 4.48549 109.861 4.0684C109.593 3.65131 109.176 3.34594 108.61 3.15229C108.044 2.95864 107.321 2.86181 106.442 2.86181Z" fill="#2A2A2A"/>
</svg>
