<svg width="103" height="37" viewBox="0 0 103 37" fill="none" xmlns="http://www.w3.org/2000/svg">
<path d="M6.41591 26.2492C6.84705 27.3935 7.44417 28.3723 8.20733 29.1849C8.9705 29.9975 9.87428 30.6192 10.9192 31.0502C11.9641 31.4818 13.1003 31.6978 14.3279 31.6978C15.5222 31.6978 16.6415 31.4735 17.6866 31.0261C18.7318 30.5781 19.6436 29.9476 20.4239 29.135C21.203 28.3224 21.8084 27.3518 22.2399 26.2245C22.6709 25.096 22.8869 23.8366 22.8869 22.4422V0.945801H28.1113V35.7778H22.9363V32.5439C21.7755 33.771 20.4069 34.7163 18.831 35.3804C17.2551 36.0438 15.555 36.3756 13.7305 36.3756C11.8727 36.3756 10.1394 36.052 8.53038 35.405C6.92162 34.758 5.52798 33.8379 4.35059 32.6437C3.17296 31.4495 2.24405 30.0145 1.56391 28.3394C0.883767 26.6643 0.543579 24.7983 0.543579 22.7416V0.945801H5.7683V22.4427C5.76906 23.8354 5.98448 25.1042 6.41591 26.2492ZM37.1174 0.945801V13.6345C38.2788 12.4731 39.6222 11.5531 41.1481 10.8732C42.6741 10.1933 44.3334 9.85271 46.1247 9.85271C47.9824 9.85271 49.7239 10.2009 51.3491 10.8978C52.9755 11.5942 54.3846 12.54 55.5794 13.7343C56.7731 14.9285 57.7184 16.3383 58.4159 17.9635C59.1123 19.5887 59.4604 21.3143 59.4604 23.1385C59.4604 24.9633 59.1123 26.6801 58.4159 28.2889C57.7184 29.8982 56.7731 31.2997 55.5794 32.494C54.3846 33.6882 52.9755 34.6341 51.3491 35.3304C49.7239 36.0274 47.9819 36.3756 46.1247 36.3756C44.3334 36.3756 42.6665 36.0356 41.1235 35.3551C39.5805 34.6752 38.2289 33.754 37.0675 32.5938V35.7784H32.0915V0.945801H37.1174ZM37.6899 26.5727C38.1373 27.6336 38.7603 28.5631 39.5558 29.3592C40.3514 30.1554 41.2808 30.7854 42.3424 31.2498C43.4039 31.7148 44.5489 31.9468 45.776 31.9468C46.9702 31.9468 48.0981 31.7148 49.1597 31.2498C50.2212 30.7854 51.1418 30.1554 51.921 29.3592C52.7007 28.5631 53.3231 27.6342 53.7869 26.5727C54.2513 25.5111 54.4838 24.3662 54.4838 23.1391C54.4838 21.9114 54.2513 20.7594 53.7869 19.6808C53.3225 18.6023 52.7007 17.6652 51.921 16.8696C51.1418 16.0734 50.2212 15.4517 49.1597 15.0037C48.0981 14.5563 46.9702 14.332 45.776 14.332C44.5817 14.332 43.4538 14.5563 42.3929 15.0037C41.3307 15.4517 40.4019 16.074 39.6057 16.8696C38.8096 17.6658 38.1796 18.6028 37.7146 19.6808C37.2501 20.7588 37.0182 21.9114 37.0182 23.1391C37.0182 24.3662 37.2425 25.5111 37.6899 26.5727ZM62.2963 18.0134C62.9592 16.4205 63.871 15.0195 65.033 13.8083C66.1937 12.5976 67.5712 11.6441 69.1629 10.9477C70.7552 10.2508 72.4808 9.90261 74.338 9.90261C76.1628 9.90261 77.8543 10.2344 79.4138 10.8978C80.9726 11.5613 82.316 12.4819 83.4439 13.6597C84.5724 14.8375 85.4507 16.2302 86.0819 17.839C86.7113 19.4483 87.0272 21.198 87.0272 23.0892V24.7314H66.3764C66.5419 25.7601 66.8737 26.7136 67.3716 27.5925C67.8694 28.4715 68.4918 29.2348 69.2375 29.8812C69.9837 30.5282 70.8298 31.0338 71.7757 31.3984C72.721 31.7642 73.7238 31.9468 74.7865 31.9468C77.805 31.9468 80.2434 30.702 82.1005 28.2137L85.7337 30.9011C84.4732 32.5932 82.9137 33.9201 81.056 34.8819C79.1983 35.8436 77.1087 36.3245 74.7865 36.3245C72.8954 36.3245 71.1287 35.9927 69.487 35.3293C67.8448 34.6658 66.418 33.737 65.2079 32.5427C63.9973 31.3485 63.0426 29.9464 62.3462 28.3376C61.6505 26.7289 61.3023 24.9786 61.3023 23.0874C61.3011 21.2978 61.6328 19.6063 62.2963 18.0134ZM69.2874 16.0482C67.8777 17.226 66.9406 18.7931 66.4762 20.7506H81.9526C81.521 18.7931 80.6004 17.226 79.1913 16.0482C77.7809 14.8704 76.1305 14.2815 74.2399 14.2815C72.3476 14.2815 70.6977 14.8704 69.2874 16.0482ZM96.4314 16.6201C95.3705 17.7814 94.8391 19.3567 94.8391 21.3477V35.7784H89.8138V10.4005H94.7892V13.5352C95.4198 12.5066 96.2406 11.694 97.2528 11.0974C98.2645 10.4997 99.4675 10.2015 100.86 10.2015H102.602V14.8792H100.512C98.8534 14.8786 97.493 15.4587 96.4314 16.6201Z" fill="#2A2A2A" fill-opacity="0.6"/>
</svg>
